<svg xmlns="http://www.w3.org/2000/svg" enable-background="new 0 0 512 512" viewBox="0 0 512 512" id="excavator"><linearGradient id="a" x1="59.785" x2="437.475" y1="454.413" y2="76.723" gradientUnits="userSpaceOnUse"><stop offset="0" stop-color="#ff984c"></stop><stop offset="1" stop-color="#ffd746"></stop></linearGradient><path fill="url(#a)" d="M509.672,149.032c-3.555-4.546-10.123-5.352-14.662-1.798l-7.252,5.667L404.465,46.349c-3.555-4.544-10.123-5.345-14.662-1.795c-26.409,20.639-36.866,54.208-29.589,84.948l-54.776,32.257c-12.688,7.54-21.781,20.07-24.938,34.385l-14.534,66.16c-3.407-0.179-6.885-0.329-10.429-0.453v-5.709c0-8.955-1.657-17.742-4.921-26.121l-27.737-71.1c-4.804-12.285-16.426-20.223-29.604-20.223h-49.977c-17.533,0-31.797,14.264-31.797,31.797v90.902H90.46V210.42c0-3.631-1.887-7.002-4.982-8.902l-28.737-17.64c-4.921-3.016-11.347-1.476-14.361,3.437c-3.019,4.916-1.479,11.347,3.437,14.366l23.754,14.583v45.132H53.151c-18.976,0-34.418,15.437-34.418,34.413v49.493c0,2.417-0.872,4.745-2.463,6.566l-8.537,9.807c-17.33,19.841-3.188,51.163,23.255,51.163h10.74c5.026,32.137,32.73,56.824,66.148,56.824c33.538,0,61.342-24.686,66.386-56.824h61.281c5.026,32.137,32.73,56.824,66.148,56.824c33.533,0,61.332-24.686,66.375-56.824h6.168c14.346,0,26.014-11.671,26.014-26.014v-33.786c0-36.908-25.406-57.611-26.315-58.92c-9.837-9.859-22.038-17.102-35.367-21.114l3.769-53.709c0.637-9.144,5.232-17.637,12.596-23.306l30.853-23.745c30.13,26.78,74.94,28.294,106.604,3.545l15.483-12.099C512.416,160.142,513.222,153.576,509.672,149.032z M132.39,170.494c0-6.015,4.896-10.908,10.908-10.908h49.977c4.518,0,8.501,2.726,10.148,6.936l27.732,71.09c2.315,5.946,3.493,12.181,3.493,18.53l-0.24,39.936l-102.02-0.227V170.494z M107.876,448.773c-25.448,0-46.152-20.807-46.152-46.379c0-25.573,20.705-46.379,46.152-46.379c25.58,0,46.392,20.807,46.392,46.379C154.268,427.966,133.456,448.773,107.876,448.773z M301.691,448.773c-25.448,0-46.152-20.807-46.152-46.379c0-25.573,20.705-46.379,46.152-46.379c25.575,0,46.382,20.807,46.382,46.379C348.072,427.966,327.266,448.773,301.691,448.773z M379.359,353.038v33.786c0,2.825-2.3,5.125-5.125,5.125h-6.168c-5.044-32.137-32.842-56.824-66.375-56.824c-33.418,0-61.123,24.686-66.148,56.824h-61.281c-5.044-32.137-32.847-56.824-66.386-56.824c-33.418,0-61.123,24.686-66.148,56.824h-10.74c-8.579,0-13.115-10.143-7.507-16.546l8.532-9.804c4.906-5.615,7.609-12.823,7.609-20.297v-49.493c0-7.458,6.069-13.524,13.53-13.524h58.351v13.565c0,11.643,9.48,21.115,21.128,21.115h101.78c11.648,0,21.128-9.473,21.128-21.115v-13.097c30.402,1.092,55.289,4.279,75.374,9.742c10.674,2.899,20.435,8.562,28.252,16.396C360.28,310.475,379.359,324.989,379.359,353.038z M342.193,179.436c-12.097,9.307-19.639,23.303-20.695,38.398l-3.529,50.297c-10.402-1.97-24.395-3.729-30.94-4.354l13.871-63.142c1.948-8.82,7.349-16.25,15.172-20.899l51.63-30.402c1.298,2.44,2.728,4.828,4.291,7.167L342.193,179.436z M391.945,148.629c-18.961-24.349-17.059-58.455,3.034-80.496l75.777,96.94C444.523,179.248,410.972,172.863,391.945,148.629z"></path></svg>